<svg version="1.1" viewBox="0 0 177.15 19.62" xmlns="http://www.w3.org/2000/svg" xmlns:xlink="http://www.w3.org/1999/xlink" id="Warstwa_1" overflow="hidden"><defs></defs><path d=" M 491.81 417.22 C 489.28 417.22 488.17 418.5 488.17 421.52 C 488.17 424.54 489.26 425.77 491.81 425.77 L 493.61 425.77 C 496.14 425.77 497.23 424.52 497.23 421.5 C 497.23 418.48 496.14 417.22 493.61 417.22 Z M 493.61 414.92 C 497.42 414.92 499.55 417.1 499.55 421.52 C 499.55 425.94 497.44 428.07 493.61 428.07 L 491.81 428.07 C 487.98 428.07 485.87 425.92 485.87 421.52 C 485.87 417.12 488 414.92 491.81 414.92 Z" fill="#474A5E" transform="matrix(1,0,0,1,-485.87,-414.68)"/><path d=" M 509 414.92 C 512 414.92 513.22 416.75 513.22 418.85 C 513.366 420.999 511.742 422.859 509.593 423.005 C 509.395 423.018 509.197 423.017 509 423 L 504.91 423 C 504.69 423 504.57 423.1 504.57 423.33 L 504.57 428.09 L 502.28 428.09 L 502.28 422.88 C 502.28 421.4 502.9 420.8 504.34 420.8 L 509 420.8 C 509.936 420.879 510.758 420.186 510.838 419.25 C 510.845 419.164 510.846 419.077 510.84 418.99 C 510.9 418.081 510.212 417.295 509.303 417.234 C 509.209 417.228 509.114 417.23 509.02 417.24 L 502.19 417.24 L 502.19 414.94 Z" fill="#474A5E" transform="matrix(1,0,0,1,-485.87,-414.68)"/><path d=" M 526.35 414.92 L 526.35 417.22 L 520.94 417.22 C 518.4 417.22 517.29 418.48 517.29 421.5 C 517.29 424.52 518.38 425.77 520.94 425.77 L 523.12 425.77 C 524.037 425.864 524.858 425.197 524.952 424.279 C 524.964 424.16 524.964 424.039 524.95 423.92 C 525.059 423.104 524.486 422.355 523.67 422.246 C 523.557 422.231 523.443 422.229 523.33 422.24 L 520.41 422.24 L 520.41 420.24 L 523.57 420.24 C 525.9 420.24 527.05 421.69 527.05 423.97 C 527.05 426.25 525.9 428.08 522.96 428.08 L 520.96 428.08 C 517.12 428.08 515.02 425.91 515.02 421.51 C 515.02 417.11 517.14 414.93 520.96 414.93 Z" fill="#474A5E" transform="matrix(1,0,0,1,-485.87,-414.68)"/><path d=" M 532 414.92 L 532 420.49 L 533.27 420.49 C 535.53 420.49 535.9 420.29 536.64 418.85 L 538.64 414.92 L 541.12 414.92 L 539 419 C 538.577 420.061 537.76 420.918 536.72 421.39 C 537.95 421.72 538.56 422.39 539.33 423.93 L 541.46 428.06 L 538.89 428.06 L 536.89 424.16 C 536.17 422.76 535.7 422.56 533.23 422.56 L 532 422.56 L 532 428.06 L 529.7 428.06 L 529.7 414.92 Z" fill="#474A5E" transform="matrix(1,0,0,1,-485.87,-414.68)"/><path d=" M 558.83 414.92 L 558.83 417.22 L 552.09 417.22 C 550.9 417.22 550.37 417.86 550.37 418.77 C 550.37 419.68 550.78 420.33 552.37 420.33 L 555.45 420.33 C 559.03 420.33 559.87 422.33 559.87 424.21 C 559.87 426.43 558.68 428.07 555.68 428.07 L 548.36 428.07 L 548.36 425.77 L 555.76 425.77 C 557.01 425.77 557.57 425.08 557.57 424.13 C 557.57 423.18 557.12 422.49 555.51 422.49 L 552.4 422.49 C 548.89 422.49 548.07 420.49 548.07 418.7 C 548.07 416.51 549.24 414.92 552.16 414.92 Z" fill="#474A5E" transform="matrix(1,0,0,1,-485.87,-414.68)"/><path d=" M 567.75 417.22 C 565.22 417.22 564.11 418.5 564.11 421.52 C 564.11 424.54 565.2 425.77 567.75 425.77 L 569.54 425.77 C 572.07 425.77 573.16 424.52 573.16 421.5 C 573.16 418.48 572.07 417.22 569.54 417.22 Z M 569.54 414.92 C 573.36 414.92 575.48 417.1 575.48 421.52 C 575.48 425.94 573.38 428.07 569.54 428.07 L 567.75 428.07 C 563.91 428.07 561.81 425.92 561.81 421.52 C 561.81 417.12 563.93 414.92 567.75 414.92 Z" fill="#474A5E" transform="matrix(1,0,0,1,-485.87,-414.68)"/><path d=" M 588.38 414.92 L 588.38 417.22 L 583.08 417.22 C 580.99 417.22 580.37 418.22 580.37 419.44 L 580.37 420.68 L 588.3 420.68 L 588.3 422.86 L 580.37 422.86 L 580.37 428.07 L 578.07 428.07 L 578.07 419.46 C 578.07 416.83 579.44 414.92 582.92 414.92 Z" fill="#474A5E" transform="matrix(1,0,0,1,-485.87,-414.68)"/><path d=" M 114.19 0.23 L 114.19 2.53 L 110.36 2.53 L 110.36 13.38 L 108.04 13.38 L 108.04 2.53 L 104.2 2.53 L 104.2 0.23 L 114.19 0.23 L 114.19 0.23 Z" fill="#474A5E"/><path d=" M 604.51 414.92 L 604.51 425.32 C 604.471 425.688 604.738 426.018 605.106 426.056 C 605.134 426.059 605.162 426.061 605.19 426.06 C 605.522 426.046 605.809 425.826 605.91 425.51 L 609.1 417.12 C 609.378 415.646 610.702 414.604 612.2 414.68 C 613.655 414.525 614.961 415.579 615.115 417.035 C 615.134 417.206 615.135 417.379 615.12 417.55 L 615.12 425.32 C 615.081 425.688 615.348 426.018 615.716 426.056 C 615.741 426.059 615.765 426.06 615.79 426.06 C 616.128 426.052 616.424 425.831 616.53 425.51 L 620.44 414.92 L 622.92 414.92 L 618.84 425.86 C 618.561 427.338 617.232 428.381 615.73 428.3 C 614.286 428.457 612.988 427.413 612.832 425.969 C 612.812 425.786 612.812 425.602 612.83 425.42 L 612.83 417.66 C 612.863 417.275 612.578 416.936 612.193 416.903 C 612.175 416.901 612.158 416.9 612.14 416.9 C 611.799 416.917 611.504 417.144 611.4 417.47 L 608.21 425.86 C 607.933 427.326 606.621 428.366 605.13 428.3 C 603.687 428.468 602.382 427.434 602.214 425.991 C 602.192 425.802 602.191 425.61 602.21 425.42 L 602.21 414.92 Z" fill="#474A5E" transform="matrix(1,0,0,1,-485.87,-414.68)"/><path d=" M 624.63 428.07 L 622.1 428.07 L 626.72 416.38 C 627.128 415.237 628.275 414.53 629.48 414.68 C 630.678 414.529 631.817 415.239 632.21 416.38 L 636.65 428.07 L 634.1 428.07 L 630.1 417.49 C 630.02 417.207 629.753 417.019 629.46 417.04 C 629.165 417.028 628.897 417.211 628.8 417.49 L 624.63 428.07 Z" fill="#474A5E" transform="matrix(1,0,0,1,-485.87,-414.68)"/><path d=" M 645.69 414.92 C 648.69 414.92 649.92 416.75 649.92 418.85 C 650.049 420.674 648.886 422.341 647.13 422.85 L 650.19 428.11 L 647.64 428.11 L 644.64 423.02 L 641.21 423.02 C 641.052 422.996 640.904 423.105 640.88 423.264 C 640.876 423.292 640.876 423.321 640.88 423.35 L 640.88 428.11 L 638.58 428.11 L 638.58 422.9 C 638.58 421.42 639.2 420.82 640.64 420.82 L 645.77 420.82 C 646.712 420.888 647.531 420.18 647.599 419.238 C 647.605 419.159 647.605 419.079 647.6 419 C 647.65 418.09 646.953 417.312 646.043 417.262 C 645.952 417.257 645.861 417.26 645.77 417.27 L 638.56 417.27 L 638.56 414.97 Z" fill="#474A5E" transform="matrix(1,0,0,1,-485.87,-414.68)"/><path d=" M 663 414.92 L 663 417.22 L 656.41 417.22 C 655.03 417.22 654.41 417.86 654.41 418.87 C 654.41 419.88 655.09 420.43 656.41 420.43 L 662.88 420.43 L 662.88 422.51 L 656.35 422.51 C 655.03 422.51 654.35 423.04 654.35 424.11 C 654.35 425.18 654.99 425.77 656.35 425.77 L 663 425.77 L 663 428.07 L 656.33 428.07 C 653.22 428.07 651.95 426.53 651.95 424.48 C 651.858 423.175 652.623 421.961 653.84 421.48 C 652.621 421.007 651.866 419.781 651.99 418.48 C 651.99 416.38 653.3 414.9 656.39 414.9 Z" fill="#474A5E" transform="matrix(1,0,0,1,-485.87,-414.68)"/><path d=" M 177.16 19.62 L 116.34 19.62 L 116.34 17.03 L 177.16 17.03 L 177.16 19.62 L 177.16 19.62 Z" fill="#45B764"/></svg>